<?xml version="1.0" encoding="UTF-8"?>
<svg xmlns="http://www.w3.org/2000/svg" width="400" height="350" viewBox="0 0 400 350">
  <style>
    .title { font: bold 16px sans-serif; }
    .axis-label { font: 12px sans-serif; }
    .tick-label { font: 10px sans-serif; }
    .legend-label { font: 11px sans-serif; }
    .value-label { font: 9px sans-serif; }
  </style>
  
  <rect width="400" height="350" fill="white"/>
  <text x="160" y="30" text-anchor="middle" class="title">Execution Time Comparison (seconds)</text>
  
  <!-- Axes -->
  <line x1="80" y1="60" x2="80" y2="270" stroke="#333"/>
  <line x1="80" y1="270" x2="280" y2="270" stroke="#333"/>
  <text x="30" y="175" text-anchor="middle" transform="rotate(-90, 30, 175)" class="axis-label">Time (seconds)</text>
  <text x="180" y="330" text-anchor="middle" class="axis-label"></text>
  
  <!-- Legend -->
  <rect x="290" y="60" width="15" height="15" fill="#2563eb"/>
  <text x="310" y="72" class="legend-label">API-Only</text>
  <rect x="290" y="85" width="15" height="15" fill="#dc2626"/>
  <text x="310" y="97" class="legend-label">API + Blockchain</text>
  <line x1="80" y1="60" x2="280" y2="60" stroke="#e5e5e5"/>
  <text x="70" y="64" text-anchor="end" class="tick-label">474.7</text>
  <line x1="80" y1="102" x2="280" y2="102" stroke="#e5e5e5"/>
  <text x="70" y="106" text-anchor="end" class="tick-label">379.8</text>
  <line x1="80" y1="144" x2="280" y2="144" stroke="#e5e5e5"/>
  <text x="70" y="148" text-anchor="end" class="tick-label">284.8</text>
  <line x1="80" y1="186" x2="280" y2="186" stroke="#e5e5e5"/>
  <text x="70" y="190" text-anchor="end" class="tick-label">189.9</text>
  <line x1="80" y1="228" x2="280" y2="228" stroke="#e5e5e5"/>
  <text x="70" y="232" text-anchor="end" class="tick-label">94.9</text>
  <line x1="80" y1="270" x2="280" y2="270" stroke="#e5e5e5"/>
  <text x="70" y="274" text-anchor="end" class="tick-label">0.0</text>
  <rect x="100" y="246.00088978279103" width="68" height="23.99911021720896" fill="#2563eb" rx="2"/>
  <text x="134" y="243.00088978279103" text-anchor="middle" class="value-label">54.25</text>
  <rect x="170" y="79.0909090909091" width="68" height="190.9090909090909" fill="#dc2626" rx="2"/>
  <text x="204" y="76.0909090909091" text-anchor="middle" class="value-label">431.57</text>
  <text x="170" y="290" text-anchor="middle" class="tick-label">Execution Time</text>
</svg>